<svg height="512" viewBox="0 0 128 128" width="512" xmlns="http://www.w3.org/2000/svg"><g><g><path d="m113.562 126.25-49.562-20.016-49.562 20.016v-124.503h99.124z" fill="#f37"/><path d="m64 97.606-41.563 16.786v-112.645h83.125v112.645z" fill="#eff4f9"/><path d="m67.38 21.771 8.7 17.635 19.463 2.828a3.769 3.769 0 0 1 2.088 6.429l-14.08 13.728 3.325 19.383a3.769 3.769 0 0 1 -5.469 3.973l-17.407-9.147-17.407 9.147a3.769 3.769 0 0 1 -5.469-3.973l3.324-19.383-14.082-13.728a3.769 3.769 0 0 1 2.088-6.429l19.462-2.828 8.7-17.635a3.769 3.769 0 0 1 6.764 0z" fill="#54528e"/><path d="m64 67.557-13.542 7.12 2.586-15.08-10.955-10.679 15.14-2.2 6.771-13.719 6.771 13.719 15.14 2.2-10.955 10.679 2.586 15.08z" fill="#fff06d"/></g><g><path d="m113.562 0h-99.125a1.751 1.751 0 0 0 -1.75 1.75v124.5a1.751 1.751 0 0 0 2.406 1.623l48.907-19.752 48.907 19.752a1.75 1.75 0 0 0 2.405-1.623v-124.503a1.75 1.75 0 0 0 -1.75-1.747zm-1.75 123.659-47.157-19.048a1.753 1.753 0 0 0 -1.31 0l-47.158 19.045v-120.156h4.5v110.9a1.751 1.751 0 0 0 2.406 1.622l40.907-16.529 40.907 16.521a1.75 1.75 0 0 0 2.405-1.622v-88.538a1.75 1.75 0 0 0 -3.5 0v85.946l-39.157-15.817a1.756 1.756 0 0 0 -1.31 0l-39.158 15.817v-108.3h79.625v10.375a1.75 1.75 0 0 0 3.5 0v-10.375h4.5z"/><path d="m95.8 40.5-18.555-2.693-8.296-16.807a5.518 5.518 0 0 0 -9.9 0l-8.3 16.811-18.549 2.689a5.52 5.52 0 0 0 -3.058 9.414 1.75 1.75 0 0 0 2.443-2.506 2.019 2.019 0 0 1 1.119-3.444l19.463-2.828a1.752 1.752 0 0 0 1.317-.957l8.7-17.636a2.019 2.019 0 0 1 3.621 0l8.7 17.636a1.752 1.752 0 0 0 1.317.957l19.463 2.828a2.019 2.019 0 0 1 1.119 3.444l-14.074 13.73a1.748 1.748 0 0 0 -.5 1.548l3.321 19.384a2.018 2.018 0 0 1 -2.929 2.13l-17.408-9.153a1.745 1.745 0 0 0 -1.629 0l-17.407 9.153a2.018 2.018 0 0 1 -2.929-2.128l3.324-19.384a1.75 1.75 0 1 0 -3.449-.591l-3.324 19.381a5.519 5.519 0 0 0 8.007 5.822l16.593-8.727 16.593 8.727a5.519 5.519 0 0 0 8.007-5.822l-3.168-18.478 13.424-13.084a5.52 5.52 0 0 0 -3.056-9.416z"/><path d="m39.714 55.332-2.171-2.116a1.75 1.75 0 1 0 -2.443 2.506l2.17 2.116a1.75 1.75 0 1 0 2.444-2.506z"/><path d="m87.575 48.378a1.749 1.749 0 0 0 -1.412-1.192l-14.229-2.067-6.365-12.894a1.749 1.749 0 0 0 -3.138 0l-6.365 12.894-14.229 2.067a1.751 1.751 0 0 0 -.97 2.985l10.3 10.037-2.434 14.173a1.751 1.751 0 0 0 2.539 1.845l12.728-6.691 12.727 6.691a1.751 1.751 0 0 0 2.54-1.845l-2.431-14.173 10.3-10.037a1.75 1.75 0 0 0 .439-1.793zm-13.842 9.967a1.752 1.752 0 0 0 -.5 1.549l1.988 11.583-10.4-5.468a1.751 1.751 0 0 0 -1.629 0l-10.4 5.468 1.987-11.583a1.748 1.748 0 0 0 -.5-1.549l-8.417-8.2 11.63-1.69a1.752 1.752 0 0 0 1.318-.957l5.19-10.545 5.2 10.54a1.752 1.752 0 0 0 1.317.957l11.633 1.69z"/></g></g></svg>