<svg id="Capa_1" enable-background="new 0 0 512 512" height="512" viewBox="0 0 512 512" width="512" xmlns="http://www.w3.org/2000/svg"><g><g><path d="m88.061 391.445c-7.601.166-14.68 3.283-19.921 8.766-5.262 5.485-8.069 12.689-7.905 20.286.165 7.606 3.285 14.69 8.786 19.949 5.339 5.103 12.297 7.891 19.658 7.891.212 0 .425-.002.637-.007 7.601-.166 14.68-3.282 19.93-8.775 10.845-11.345 10.445-29.39-.891-40.227-5.492-5.249-12.727-8.041-20.294-7.883zm10.342 37.746c-2.479 2.594-5.823 4.065-9.414 4.144-3.593.068-7.004-1.247-9.603-3.731-2.602-2.487-4.077-5.836-4.155-9.431-.078-3.586 1.248-6.988 3.742-9.587 2.479-2.594 5.823-4.065 9.415-4.144.101-.002.201-.003.302-.003 3.482 0 6.775 1.319 9.301 3.734 5.356 5.12 5.542 13.652.412 19.018z"/><path d="m229.955 481.844c.212 0 .425-.002.637-.007 7.601-.166 14.68-3.282 19.93-8.775 10.833-11.332 10.437-29.386-.881-40.245-.003-.003-.006-.006-.01-.009-5.493-5.25-12.724-8.026-20.304-7.87-7.596.176-14.671 3.297-19.912 8.78-5.262 5.485-8.069 12.69-7.904 20.287.165 7.605 3.285 14.69 8.786 19.949 5.339 5.102 12.297 7.89 19.658 7.89zm-9.706-37.753c2.484-2.599 5.831-4.075 9.425-4.158.107-.002.213-.004.319-.004 3.472 0 6.752 1.313 9.268 3.716 5.356 5.143 5.545 13.688.418 19.052-2.479 2.594-5.823 4.065-9.415 4.144-3.596.085-7.004-1.247-9.603-3.73-2.602-2.487-4.077-5.836-4.155-9.431-.076-3.588 1.249-6.989 3.743-9.589z"/><path d="m472.464 326.668h-.863l-8.982-24.023c-3.149-8.383-10.769-13.592-19.887-13.593l-12.783-78.826c-.012-.075-.025-.149-.04-.224-.772-3.989-2.72-7.376-5.419-9.858v-152.335c0-4.142-3.358-7.5-7.5-7.5h-39.498v-32.809c0-4.142-3.358-7.5-7.5-7.5h-336.947c-4.142 0-7.5 3.358-7.5 7.5v146.042c0 4.142 3.358 7.5 7.5 7.5s7.5-3.358 7.5-7.5v-138.542h321.948v25.309h-97.663c-4.142 0-7.5 3.358-7.5 7.5s3.358 7.5 7.5 7.5h144.661v140.758c-6.874 1.429-12.112 6.907-13.206 14.209l-12.775 78.775c-9.117.001-16.737 5.21-19.89 13.604l-8.978 24.012h-.863c-7.715 0-13.992 6.289-13.992 14.02v36.608h-130.787c3.986-4.16 8.251-8.611 12.706-13.26 12.176-12.707 42.34-44.173 42.34-44.173 31.136-32.44 49.931-52.021 45.384-101.561-.203-2.185-.743-7.988-6.114-9.851-5.447-1.891-9.301 2.163-12.098 5.102l-102.968 107.469-41.626-142.971c-1.147-3.913-2.718-9.271-8.398-10.091-5.617-.811-8.654 3.913-9.952 5.928-26.933 41.809-19.47 67.353-9.14 102.708l26.007 89.35c-5.917 5.601-9.803 4.969-24.906 1.59-6.042-1.352-13.562-3.035-22.923-4.445-3.272-.491-6.548-.68-9.799-.609v-307.172h142.053c4.142 0 7.5-3.358 7.5-7.5s-3.358-7.5-7.5-7.5h-149.552c-4.142 0-7.5 3.358-7.5 7.5v289.149h-31.969v-148.804c0-4.142-3.358-7.5-7.5-7.5s-7.5 3.358-7.5 7.5v156.304c0 4.142 3.358 7.5 7.5 7.5h39.469v12.869c-9.508 2.808-18.26 8.048-25.255 15.418-21.802 22.876-21.021 59.239 1.742 81.058 11.06 10.602 25.331 15.868 39.604 15.868 15.091 0 30.184-5.892 41.466-17.593l32.627-34.01 13.152 45.145c4.275 14.687 14.012 26.83 27.416 34.192 8.564 4.704 17.97 7.096 27.477 7.096 5.374 0 10.781-.765 16.085-2.309 30.272-8.811 47.785-40.682 39.042-71.04-5.161-17.954-18.79-32.303-36.461-38.385-7.763-2.668-14.284-4.561-20.037-6.232-2.152-.625-4.105-1.197-5.889-1.74h116.304v105.66c0 7.715 6.277 13.991 13.992 13.991h118.684c7.715 0 13.991-6.276 13.991-13.991v-43.881-55.814-57.572c.001-7.731-6.275-14.02-13.99-14.02zm-177.341-95.511c.441 34.202-13.825 49.068-41.898 78.317 0 0-49.303 51.44-52.557 54.836-1.364-3.791-3.595-7.331-6.697-10.297-3.038-2.915-6.644-5.024-10.562-6.245 0 0 6.729-7.035 6.759-7.068zm-160.085-39.276 41.219 141.656-19.118 19.954-23.607-81.102c-8.957-30.661-14.7-50.324 1.506-80.508zm-15.778 257.299c-16.217 16.819-43.079 17.399-59.88 1.294-16.809-16.113-17.376-42.976-1.252-59.893 8.013-8.442 19.135-13.128 30.648-13.128 2.094 0 4.203.155 6.307.471 8.833 1.331 15.764 2.881 21.878 4.249 16.584 3.711 27.54 6.162 40.383-7.214l9.39-9.786c2.186-2.271 5.144-3.561 8.336-3.629 3.227-.061 6.231 1.1 8.525 3.301 4.707 4.5 4.91 11.96.509 16.745-2.497 2.604-64.844 67.59-64.844 67.59zm125.271-34.729c13.047 4.49 23.113 15.086 26.924 28.348 6.462 22.437-6.467 45.984-28.819 52.491-10.84 3.155-22.258 1.901-32.15-3.532-9.892-5.434-17.078-14.396-20.235-25.238l-15.569-53.443s17.559-18.301 19.933-20.776c.015-.015.031-.028.046-.043 6.482 9.194 16.73 12.176 30.529 16.182 5.59 1.622 11.925 3.462 19.341 6.011zm226.924 32.123h-116.667v-40.814h116.667zm-116.667-55.814v-49.092h116.667v49.092zm56.329-178.248c.064-.439.26-1.777 1.897-1.814 1.634-.028 2.023 1.431 2.149 2.052l12.373 76.302h-28.831c.001-.001 12.407-76.502 12.412-76.54zm-33.451 95.407c.964-2.566 2.932-3.868 5.848-3.868h59.215c2.916 0 4.884 1.302 5.845 3.857l7.014 18.759h-84.931zm-22.878 189.027v-35.372h116.667v35.372z"/></g></g></svg>